<mxfile host="www.draw.io" modified="2020-02-03T15:04:41.491Z" agent="Mozilla/5.0 (Windows NT 10.0; Win64; x64) AppleWebKit/537.36 (KHTML, like Gecko) Chrome/79.0.3945.130 Safari/537.36" etag="DPJJ7lVC-5RD2GqMYyJV" version="12.6.4" type="github">
  <diagram id="EoF8bWfDZ1W5wUB4bAYc" name="Page-1">
    <mxGraphModel dx="1186" dy="635" grid="1" gridSize="10" guides="1" tooltips="1" connect="1" arrows="1" fold="1" page="1" pageScale="1" pageWidth="827" pageHeight="1169" math="0" shadow="0">
      <root>
        <mxCell id="0"/>
        <mxCell id="1" parent="0"/>
        <mxCell id="dSU2X27HAQukt67_EWKS-2" value="메인 홈페이지" style="rounded=1;whiteSpace=wrap;html=1;" parent="1" vertex="1">
          <mxGeometry x="10" y="230" width="110" height="30" as="geometry"/>
        </mxCell>
        <mxCell id="YvviXQJLg1RaKpPX2QeB-4" value="필수 항목 입력" style="rounded=1;whiteSpace=wrap;html=1;" parent="1" vertex="1">
          <mxGeometry x="140" y="290" width="110" height="30" as="geometry"/>
        </mxCell>
        <mxCell id="neC13Q8qBrCzFK0d2maf-18" style="edgeStyle=orthogonalEdgeStyle;rounded=0;orthogonalLoop=1;jettySize=auto;html=1;exitX=0.5;exitY=0;exitDx=0;exitDy=0;entryX=0.5;entryY=1;entryDx=0;entryDy=0;" edge="1" parent="1" target="YvviXQJLg1RaKpPX2QeB-9">
          <mxGeometry relative="1" as="geometry">
            <mxPoint x="465" y="180" as="sourcePoint"/>
          </mxGeometry>
        </mxCell>
        <mxCell id="neC13Q8qBrCzFK0d2maf-29" value="" style="edgeStyle=orthogonalEdgeStyle;rounded=0;orthogonalLoop=1;jettySize=auto;html=1;" edge="1" parent="1" source="YvviXQJLg1RaKpPX2QeB-6" target="YvviXQJLg1RaKpPX2QeB-13">
          <mxGeometry relative="1" as="geometry">
            <Array as="points">
              <mxPoint x="465" y="260"/>
              <mxPoint x="465" y="260"/>
            </Array>
          </mxGeometry>
        </mxCell>
        <mxCell id="YvviXQJLg1RaKpPX2QeB-6" value="관리자" style="rounded=1;whiteSpace=wrap;html=1;" parent="1" vertex="1">
          <mxGeometry x="410" y="180" width="110" height="30" as="geometry"/>
        </mxCell>
        <mxCell id="neC13Q8qBrCzFK0d2maf-19" style="edgeStyle=orthogonalEdgeStyle;rounded=0;orthogonalLoop=1;jettySize=auto;html=1;exitX=0.5;exitY=0;exitDx=0;exitDy=0;entryX=0.5;entryY=1;entryDx=0;entryDy=0;" edge="1" parent="1" source="YvviXQJLg1RaKpPX2QeB-9" target="YvviXQJLg1RaKpPX2QeB-11">
          <mxGeometry relative="1" as="geometry"/>
        </mxCell>
        <mxCell id="neC13Q8qBrCzFK0d2maf-33" style="edgeStyle=orthogonalEdgeStyle;rounded=0;orthogonalLoop=1;jettySize=auto;html=1;exitX=1;exitY=0.5;exitDx=0;exitDy=0;entryX=0;entryY=0.5;entryDx=0;entryDy=0;" edge="1" parent="1" source="YvviXQJLg1RaKpPX2QeB-9" target="neC13Q8qBrCzFK0d2maf-32">
          <mxGeometry relative="1" as="geometry"/>
        </mxCell>
        <mxCell id="YvviXQJLg1RaKpPX2QeB-9" value="상품등록" style="rounded=1;whiteSpace=wrap;html=1;" parent="1" vertex="1">
          <mxGeometry x="410" y="130" width="110" height="30" as="geometry"/>
        </mxCell>
        <mxCell id="neC13Q8qBrCzFK0d2maf-22" style="edgeStyle=orthogonalEdgeStyle;rounded=0;orthogonalLoop=1;jettySize=auto;html=1;exitX=0.5;exitY=0;exitDx=0;exitDy=0;entryX=0.5;entryY=1;entryDx=0;entryDy=0;" edge="1" parent="1" source="YvviXQJLg1RaKpPX2QeB-11" target="neC13Q8qBrCzFK0d2maf-1">
          <mxGeometry relative="1" as="geometry"/>
        </mxCell>
        <mxCell id="YvviXQJLg1RaKpPX2QeB-11" value="회원 수정/삭제" style="rounded=1;whiteSpace=wrap;html=1;" parent="1" vertex="1">
          <mxGeometry x="410" y="80" width="110" height="30" as="geometry"/>
        </mxCell>
        <mxCell id="neC13Q8qBrCzFK0d2maf-31" style="edgeStyle=orthogonalEdgeStyle;rounded=0;orthogonalLoop=1;jettySize=auto;html=1;entryX=0.5;entryY=0;entryDx=0;entryDy=0;" edge="1" parent="1" source="YvviXQJLg1RaKpPX2QeB-13" target="YvviXQJLg1RaKpPX2QeB-14">
          <mxGeometry relative="1" as="geometry"/>
        </mxCell>
        <mxCell id="YvviXQJLg1RaKpPX2QeB-13" value="네이버 로그인" style="rounded=1;whiteSpace=wrap;html=1;" parent="1" vertex="1">
          <mxGeometry x="410" y="280" width="110" height="30" as="geometry"/>
        </mxCell>
        <mxCell id="YvviXQJLg1RaKpPX2QeB-14" value="로그아웃" style="rounded=1;whiteSpace=wrap;html=1;" parent="1" vertex="1">
          <mxGeometry x="410" y="540" width="110" height="30" as="geometry"/>
        </mxCell>
        <mxCell id="neC13Q8qBrCzFK0d2maf-7" style="edgeStyle=orthogonalEdgeStyle;rounded=0;orthogonalLoop=1;jettySize=auto;html=1;entryX=0;entryY=0.5;entryDx=0;entryDy=0;" edge="1" parent="1" source="YvviXQJLg1RaKpPX2QeB-15" target="YvviXQJLg1RaKpPX2QeB-6">
          <mxGeometry relative="1" as="geometry">
            <Array as="points">
              <mxPoint x="325" y="195"/>
            </Array>
          </mxGeometry>
        </mxCell>
        <mxCell id="neC13Q8qBrCzFK0d2maf-9" style="edgeStyle=orthogonalEdgeStyle;rounded=0;orthogonalLoop=1;jettySize=auto;html=1;entryX=0;entryY=0.5;entryDx=0;entryDy=0;" edge="1" parent="1" source="YvviXQJLg1RaKpPX2QeB-15" target="YvviXQJLg1RaKpPX2QeB-13">
          <mxGeometry relative="1" as="geometry">
            <Array as="points">
              <mxPoint x="325" y="295"/>
            </Array>
          </mxGeometry>
        </mxCell>
        <mxCell id="neC13Q8qBrCzFK0d2maf-11" style="edgeStyle=orthogonalEdgeStyle;rounded=0;orthogonalLoop=1;jettySize=auto;html=1;entryX=0.5;entryY=0;entryDx=0;entryDy=0;" edge="1" parent="1" source="YvviXQJLg1RaKpPX2QeB-15" target="YvviXQJLg1RaKpPX2QeB-16">
          <mxGeometry relative="1" as="geometry">
            <Array as="points">
              <mxPoint x="325" y="310"/>
              <mxPoint x="325" y="310"/>
            </Array>
          </mxGeometry>
        </mxCell>
        <mxCell id="neC13Q8qBrCzFK0d2maf-15" style="edgeStyle=orthogonalEdgeStyle;rounded=0;orthogonalLoop=1;jettySize=auto;html=1;exitX=1;exitY=0.5;exitDx=0;exitDy=0;entryX=0;entryY=0.5;entryDx=0;entryDy=0;" edge="1" parent="1" source="dSU2X27HAQukt67_EWKS-2" target="YvviXQJLg1RaKpPX2QeB-18">
          <mxGeometry relative="1" as="geometry"/>
        </mxCell>
        <mxCell id="YvviXQJLg1RaKpPX2QeB-15" value="로그인" style="rounded=1;whiteSpace=wrap;html=1;" parent="1" vertex="1">
          <mxGeometry x="270" y="230" width="110" height="30" as="geometry"/>
        </mxCell>
        <mxCell id="neC13Q8qBrCzFK0d2maf-12" style="edgeStyle=orthogonalEdgeStyle;rounded=0;orthogonalLoop=1;jettySize=auto;html=1;entryX=0.5;entryY=0;entryDx=0;entryDy=0;" edge="1" parent="1" target="YvviXQJLg1RaKpPX2QeB-20">
          <mxGeometry relative="1" as="geometry">
            <mxPoint x="325" y="330" as="sourcePoint"/>
          </mxGeometry>
        </mxCell>
        <mxCell id="YvviXQJLg1RaKpPX2QeB-16" value="내 정보" style="rounded=1;whiteSpace=wrap;html=1;" parent="1" vertex="1">
          <mxGeometry x="270" y="350" width="110" height="30" as="geometry"/>
        </mxCell>
        <mxCell id="neC13Q8qBrCzFK0d2maf-16" style="edgeStyle=orthogonalEdgeStyle;rounded=0;orthogonalLoop=1;jettySize=auto;html=1;exitX=0.5;exitY=1;exitDx=0;exitDy=0;entryX=0.5;entryY=0;entryDx=0;entryDy=0;" edge="1" parent="1" source="YvviXQJLg1RaKpPX2QeB-17" target="YvviXQJLg1RaKpPX2QeB-22">
          <mxGeometry relative="1" as="geometry"/>
        </mxCell>
        <mxCell id="YvviXQJLg1RaKpPX2QeB-17" value="상품목록" style="rounded=1;whiteSpace=wrap;html=1;" parent="1" vertex="1">
          <mxGeometry x="550" y="230" width="110" height="30" as="geometry"/>
        </mxCell>
        <mxCell id="neC13Q8qBrCzFK0d2maf-27" style="edgeStyle=orthogonalEdgeStyle;rounded=0;orthogonalLoop=1;jettySize=auto;html=1;exitX=0.5;exitY=1;exitDx=0;exitDy=0;entryX=0.5;entryY=0;entryDx=0;entryDy=0;" edge="1" parent="1" source="YvviXQJLg1RaKpPX2QeB-18" target="neC13Q8qBrCzFK0d2maf-25">
          <mxGeometry relative="1" as="geometry"/>
        </mxCell>
        <mxCell id="YvviXQJLg1RaKpPX2QeB-18" value="게시판" style="rounded=1;whiteSpace=wrap;html=1;" parent="1" vertex="1">
          <mxGeometry x="690" y="230" width="110" height="30" as="geometry"/>
        </mxCell>
        <mxCell id="neC13Q8qBrCzFK0d2maf-13" style="edgeStyle=orthogonalEdgeStyle;rounded=0;orthogonalLoop=1;jettySize=auto;html=1;entryX=0.5;entryY=0;entryDx=0;entryDy=0;exitX=0.5;exitY=1;exitDx=0;exitDy=0;" edge="1" parent="1" source="YvviXQJLg1RaKpPX2QeB-16" target="YvviXQJLg1RaKpPX2QeB-21">
          <mxGeometry relative="1" as="geometry"/>
        </mxCell>
        <mxCell id="YvviXQJLg1RaKpPX2QeB-20" value="장바구니 확인" style="rounded=1;whiteSpace=wrap;html=1;" parent="1" vertex="1">
          <mxGeometry x="140" y="400" width="110" height="30" as="geometry"/>
        </mxCell>
        <mxCell id="neC13Q8qBrCzFK0d2maf-35" style="edgeStyle=orthogonalEdgeStyle;rounded=0;orthogonalLoop=1;jettySize=auto;html=1;entryX=0.5;entryY=0;entryDx=0;entryDy=0;" edge="1" parent="1" source="YvviXQJLg1RaKpPX2QeB-21" target="neC13Q8qBrCzFK0d2maf-34">
          <mxGeometry relative="1" as="geometry"/>
        </mxCell>
        <mxCell id="YvviXQJLg1RaKpPX2QeB-21" value="결제내역 확인" style="rounded=1;whiteSpace=wrap;html=1;" parent="1" vertex="1">
          <mxGeometry x="270" y="450" width="110" height="30" as="geometry"/>
        </mxCell>
        <mxCell id="neC13Q8qBrCzFK0d2maf-17" style="edgeStyle=orthogonalEdgeStyle;rounded=0;orthogonalLoop=1;jettySize=auto;html=1;exitX=0.5;exitY=1;exitDx=0;exitDy=0;entryX=0.5;entryY=0;entryDx=0;entryDy=0;" edge="1" parent="1" source="YvviXQJLg1RaKpPX2QeB-22" target="YvviXQJLg1RaKpPX2QeB-23">
          <mxGeometry relative="1" as="geometry"/>
        </mxCell>
        <mxCell id="YvviXQJLg1RaKpPX2QeB-22" value="장바구니에 담기" style="rounded=1;whiteSpace=wrap;html=1;" parent="1" vertex="1">
          <mxGeometry x="550" y="280" width="110" height="30" as="geometry"/>
        </mxCell>
        <mxCell id="YvviXQJLg1RaKpPX2QeB-23" value="결제" style="rounded=1;whiteSpace=wrap;html=1;" parent="1" vertex="1">
          <mxGeometry x="550" y="330" width="110" height="30" as="geometry"/>
        </mxCell>
        <mxCell id="neC13Q8qBrCzFK0d2maf-1" value="관리자 로그아웃" style="rounded=1;whiteSpace=wrap;html=1;" vertex="1" parent="1">
          <mxGeometry x="410" y="30" width="110" height="30" as="geometry"/>
        </mxCell>
        <mxCell id="neC13Q8qBrCzFK0d2maf-10" value="" style="endArrow=classic;startArrow=classic;html=1;entryX=0.5;entryY=1;entryDx=0;entryDy=0;exitX=0.5;exitY=0;exitDx=0;exitDy=0;" edge="1" parent="1" source="YvviXQJLg1RaKpPX2QeB-4" target="YvviXQJLg1RaKpPX2QeB-3">
          <mxGeometry width="50" height="50" relative="1" as="geometry">
            <mxPoint x="160" y="380" as="sourcePoint"/>
            <mxPoint x="210" y="330" as="targetPoint"/>
          </mxGeometry>
        </mxCell>
        <mxCell id="YvviXQJLg1RaKpPX2QeB-3" value="회원가입" style="rounded=1;whiteSpace=wrap;html=1;" parent="1" vertex="1">
          <mxGeometry x="140" y="230" width="110" height="30" as="geometry"/>
        </mxCell>
        <mxCell id="neC13Q8qBrCzFK0d2maf-28" style="edgeStyle=orthogonalEdgeStyle;rounded=0;orthogonalLoop=1;jettySize=auto;html=1;entryX=0.5;entryY=0;entryDx=0;entryDy=0;" edge="1" parent="1" source="neC13Q8qBrCzFK0d2maf-25" target="neC13Q8qBrCzFK0d2maf-26">
          <mxGeometry relative="1" as="geometry"/>
        </mxCell>
        <mxCell id="neC13Q8qBrCzFK0d2maf-25" value="리뷰작성" style="rounded=1;whiteSpace=wrap;html=1;" vertex="1" parent="1">
          <mxGeometry x="690" y="280" width="110" height="30" as="geometry"/>
        </mxCell>
        <mxCell id="neC13Q8qBrCzFK0d2maf-26" value="댓글" style="rounded=1;whiteSpace=wrap;html=1;" vertex="1" parent="1">
          <mxGeometry x="690" y="330" width="110" height="30" as="geometry"/>
        </mxCell>
        <mxCell id="neC13Q8qBrCzFK0d2maf-32" value="첨부파일" style="rounded=1;whiteSpace=wrap;html=1;" vertex="1" parent="1">
          <mxGeometry x="540" y="130" width="110" height="30" as="geometry"/>
        </mxCell>
        <mxCell id="neC13Q8qBrCzFK0d2maf-37" style="edgeStyle=orthogonalEdgeStyle;rounded=0;orthogonalLoop=1;jettySize=auto;html=1;entryX=0;entryY=0.5;entryDx=0;entryDy=0;" edge="1" parent="1" source="neC13Q8qBrCzFK0d2maf-34" target="YvviXQJLg1RaKpPX2QeB-14">
          <mxGeometry relative="1" as="geometry">
            <Array as="points">
              <mxPoint x="325" y="555"/>
            </Array>
          </mxGeometry>
        </mxCell>
        <mxCell id="neC13Q8qBrCzFK0d2maf-34" value="회원 수정/탈퇴" style="rounded=1;whiteSpace=wrap;html=1;" vertex="1" parent="1">
          <mxGeometry x="270" y="500" width="110" height="30" as="geometry"/>
        </mxCell>
      </root>
    </mxGraphModel>
  </diagram>
</mxfile>
